Coordinates
version=1
nRows=16
nColumns=40
inDegrees=yes

Units are S.I. units (second, meters, Newtons, ...)
If the header above contains a line with 'inDegrees', this indicates whether rotational values are in degrees (yes) or radians (no).

endheader
time	pelvis_tilt	pelvis_list	pelvis_rotation	pelvis_tx	pelvis_ty	pelvis_tz	hip_flexion_r	hip_adduction_r	hip_rotation_r	knee_angle_r	knee_angle_r_beta	ankle_angle_r	subtalar_angle_r	mtp_angle_r	hip_flexion_l	hip_adduction_l	hip_rotation_l	knee_angle_l	knee_angle_l_beta	ankle_angle_l	subtalar_angle_l	mtp_angle_l	lumbar_extension	lumbar_bending	lumbar_rotation	arm_flex_r	arm_add_r	arm_rot_r	elbow_flex_r	pro_sup_r	wrist_flex_r	wrist_dev_r	arm_flex_l	arm_add_l	arm_rot_l	elbow_flex_l	pro_sup_l	wrist_flex_l	wrist_dev_l
      1.20000000	     -4.47166623	     -9.97036489	     89.94113622	      0.20884914	      0.95243251	      0.02995014	     36.69913761	     -3.57014254	     -3.67035824	     -1.46574227	     -0.02558203	      1.36009417	     -0.00000000	     -0.00000000	     -9.93218245	      7.54430010	      6.19840800	      0.26370837	      0.00460258	     14.87967475	      0.00000000	      0.00000000	      1.67206543	     -6.05517855	     -3.17124023	     -0.00000000	      0.00000000	      0.00000000	      0.00000000	      0.00000000	     -0.00000000	     -0.00000000	      0.00000000	      0.00000000	     -0.00000000	      0.00000000	      0.00000000	      0.00000000	      0.00000000
      1.21000000	     -4.36123109	    -10.29654334	     89.94120258	      0.20980321	      0.94927566	      0.01402786	     37.17228301	     -3.26214651	     -3.71032392	     -1.58422670	     -0.02764997	      1.45870578	      0.00000000	      0.00000000	    -10.45555494	      7.32715739	      6.31835421	      0.58339707	      0.01018220	     15.03351685	      0.00000000	      0.00000000	      2.03306193	     -5.88107265	     -3.30339659	      0.00000000	      0.00000000	      0.00000000	      0.00000000	      0.00000000	      0.00000000	      0.00000000	      0.00000000	      0.00000000	      0.00000000	      0.00000000	      0.00000000	      0.00000000	      0.00000000
      1.22000000	     -4.06936194	    -10.54837883	     89.94103889	      0.21091521	      0.94657295	     -0.00199324	     37.61356907	     -2.78117225	     -3.68683020	     -1.08879140	     -0.01900299	      1.28492198	      0.00000000	      0.00000000	    -10.95624147	      6.91593131	      6.44313830	      1.08867342	      0.01900094	     15.16910980	      0.00000000	      0.00000000	      2.30018347	     -5.50094519	     -3.39678490	      0.00000000	      0.00000000	      0.00000000	      0.00000000	      0.00000000	      0.00000000	      0.00000000	      0.00000000	      0.00000000	      0.00000000	      0.00000000	      0.00000000	      0.00000000	      0.00000000
      1.23000000	     -3.69629030	    -10.73788275	     89.94088283	      0.21202435	      0.94432277	     -0.01823835	     37.99612273	     -2.23372727	     -3.97655305	     -0.16473243	     -0.00287512	      0.79101418	     -0.00000000	      0.00000000	    -11.44527346	      6.42922005	      6.46027388	      1.72957577	      0.03018679	     15.13283134	      0.00000000	     -0.00000000	      2.50140329	     -5.02397125	     -3.46393967	     -0.00000000	     -0.00000000	      0.00000000	      0.00000000	      0.00000000	     -0.00000000	     -0.00000000	      0.00000000	      0.00000000	      0.00000000	      0.00000000	      0.00000000	     -0.00000000	      0.00000000
      1.24000000	     -3.26286021	    -10.93766399	     89.94014459	      0.21315161	      0.94247422	     -0.03459824	     38.39323093	     -1.64956017	     -4.30451847	      1.10387195	      0.01926620	     -0.02886368	      0.00000000	      0.00000000	    -11.80467591	      5.88591225	      6.38791019	      2.54522854	      0.04442262	     14.80652387	      0.00000000	      0.00000000	      2.72470627	     -4.47181447	     -3.55045791	      0.00000000	      0.00000000	      0.00000000	      0.00000000	      0.00000000	      0.00000000	      0.00000000	      0.00000000	      0.00000000	      0.00000000	      0.00000000	      0.00000000	      0.00000000	      0.00000000
      1.25000000	     -2.77673192	    -11.09513928	     89.93925587	      0.21426708	      0.94110511	     -0.05106365	     38.74087552	     -1.03946485	     -4.67519734	      2.61507598	      0.04564169	     -1.15344854	      0.00000000	     -0.00000000	    -12.05663642	      5.30514376	      6.22416540	      3.59777127	      0.06279295	     14.22855708	      0.00000000	     -0.00000000	      2.89621669	     -3.84859548	     -3.62870580	      0.00000000	     -0.00000000	     -0.00000000	      0.00000000	      0.00000000	     -0.00000000	     -0.00000000	     -0.00000000	     -0.00000000	     -0.00000000	      0.00000000	      0.00000000	      0.00000000	     -0.00000000
      1.26000000	     -2.24560705	    -11.20654774	     89.93785952	      0.21536219	      0.94024667	     -0.06765490	     39.02503460	     -0.42221390	     -5.05202401	      4.28508685	      0.07478887	     -2.52163456	      0.00000000	      0.00000000	    -12.17465049	      4.69082916	      5.94672166	      4.92146151	      0.08589571	     13.38665118	      0.00000000	      0.00000000	      3.01938748	     -3.16504675	     -3.70672778	      0.00000000	      0.00000000	      0.00000000	      0.00000000	      0.00000000	      0.00000000	      0.00000000	      0.00000000	      0.00000000	      0.00000000	      0.00000000	      0.00000000	      0.00000000	      0.00000000
      1.27000000	     -1.67645310	    -11.25643271	     89.93641114	      0.21643727	      0.93994572	     -0.08433282	     39.19936177	      0.19777364	     -5.37177291	      5.99584640	      0.10464726	     -4.00336391	      0.00000000	      0.00000000	    -12.12421103	      4.05278783	      5.57510881	      6.59527618	      0.11510928	     12.24037395	      0.00000000	      0.00000000	      3.07329025	     -2.43893026	     -3.75187133	      0.00000000	      0.00000000	      0.00000000	      0.00000000	      0.00000000	      0.00000000	      0.00000000	      0.00000000	      0.00000000	      0.00000000	      0.00000000	      0.00000000	      0.00000000	      0.00000000
      1.28000000	     -1.04433078	    -11.24778428	     89.93489446	      0.21752554	      0.94017953	     -0.10111370	     39.26003598	      0.84537958	     -5.67852989	      7.69804684	      0.13435626	     -5.55600582	      0.00000000	      0.00000000	    -11.88390288	      3.34996812	      5.01378336	      8.63760673	      0.15075468	     10.75149319	      0.00000000	      0.00000000	      3.06487953	     -1.63905792	     -3.78159129	      0.00000000	      0.00000000	      0.00000000	      0.00000000	      0.00000000	      0.00000000	      0.00000000	      0.00000000	      0.00000000	      0.00000000	      0.00000000	      0.00000000	      0.00000000	      0.00000000
      1.29000000	     -0.43932222	    -11.13929720	     89.93248117	      0.21855976	      0.94098945	     -0.11789052	     39.17660618	      1.43708788	     -5.80880039	      9.39839808	      0.16403299	     -6.87669874	      0.00000000	      0.00000000	    -11.46135250	      2.67117828	      4.38032965	     11.08440979	      0.19345945	      8.89450930	      0.00000000	      0.00000000	      2.92659023	     -0.87835206	     -3.80948712	      0.00000000	      0.00000000	      0.00000000	      0.00000000	      0.00000000	      0.00000000	      0.00000000	      0.00000000	      0.00000000	      0.00000000	      0.00000000	      0.00000000	      0.00000000	      0.00000000
      1.30000000	      0.27937945	    -11.01844815	     89.92992189	      0.21964361	      0.94223698	     -0.13470952	     38.99039149	      2.13669175	     -5.81225591	     10.98965086	      0.19180559	     -8.02235151	      0.00000000	      0.00000000	    -10.76349812	      1.84873511	      3.58463631	     13.93284867	      0.24317408	      6.66154472	      0.00000000	      0.00000000	      2.79733436	      0.02094186	     -3.76296000	      0.00000000	      0.00000000	      0.00000000	      0.00000000	      0.00000000	      0.00000000	      0.00000000	      0.00000000	      0.00000000	      0.00000000	      0.00000000	      0.00000000	      0.00000000	      0.00000000
      1.31000000	      0.91768002	    -10.75943198	     89.92735324	      0.22067438	      0.94400630	     -0.15142112	     38.61980403	      2.74104367	     -5.72530729	     12.55754043	      0.21917043	     -8.72241171	     -0.00000000	     -0.00000000	     -9.91445752	      1.07801246	      2.80512488	     17.17142633	      0.29969793	      4.02019710	     -0.00000000	      0.00000000	      2.48130990	      0.80566648	     -3.75914900	     -0.00000000	      0.00000000	      0.00000000	      0.00000000	      0.00000000	     -0.00000000	      0.00000000	      0.00000000	     -0.00000000	     -0.00000000	      0.00000000	      0.00000000	     -0.00000000	     -0.00000000
      1.32000000	      1.64951971	    -10.51715480	     89.92435502	      0.22180254	      0.94603060	     -0.16804435	     38.17193239	      3.46334395	     -5.51555674	     13.98933995	      0.24416004	     -9.11619102	      0.00000000	      0.00000000	     -8.76971965	      0.15949797	      1.98955709	     20.76898951	      0.36248725	      0.99369959	      0.00000000	      0.00000000	      2.19384170	      1.69106781	     -3.65027766	      0.00000000	      0.00000000	      0.00000000	      0.00000000	      0.00000000	      0.00000000	      0.00000000	      0.00000000	      0.00000000	      0.00000000	      0.00000000	      0.00000000	      0.00000000	      0.00000000
      1.33000000	      2.31180233	    -10.17399754	     89.92162746	      0.22289690	      0.94840308	     -0.18446799	     37.55333374	      4.12453849	     -5.27510685	     15.33749867	      0.26768985	     -9.09218415	      0.00000000	      0.00000000	     -7.48988656	     -0.72603423	      1.29361724	     24.62394077	      0.42976884	     -2.33859286	      0.00000000	      0.00000000	      1.77057870	      2.47409492	     -3.56222959	      0.00000000	      0.00000000	      0.00000000	      0.00000000	      0.00000000	      0.00000000	      0.00000000	      0.00000000	      0.00000000	      0.00000000	      0.00000000	      0.00000000	      0.00000000	      0.00000000
      1.34000000	      2.95464677	     -9.78937690	     89.91828863	      0.22401361	      0.95098791	     -0.20068602	     36.78993149	      4.79386641	     -5.00706913	     16.52365854	      0.28839225	     -8.75455753	      0.00000000	      0.00000000	     -6.05370565	     -1.62918629	      0.72093757	     28.65049578	      0.50004548	     -5.83660057	      0.00000000	      0.00000000	      1.28687921	      3.21251232	     -3.44014437	      0.00000000	      0.00000000	      0.00000000	      0.00000000	      0.00000000	      0.00000000	      0.00000000	      0.00000000	      0.00000000	      0.00000000	      0.00000000	      0.00000000	      0.00000000	      0.00000000
      1.35000000	      3.59239021	     -9.49698053	     89.91573517	      0.22517556	      0.95357146	     -0.21656595	     36.02615654	      5.49162822	     -4.72513569	     17.52556451	      0.30587880	     -8.17307925	      0.00000000	      0.00000000	     -4.34683067	     -2.54254804	      0.33887241	     32.77800339	      0.57208408	     -9.36551153	      0.00000000	      0.00000000	      0.89728671	      3.93121380	     -3.25244961	      0.00000000	      0.00000000	      0.00000000	      0.00000000	      0.00000000	      0.00000000	      0.00000000	      0.00000000	      0.00000000	      0.00000000	      0.00000000	      0.00000000	      0.00000000	      0.00000000
